<svg width="999" height="571" viewBox="0 0 999 571" fill="none" xmlns="http://www.w3.org/2000/svg">
<path d="M800.647 497.437C800.647 497.437 798.293 497.437 800.647 485.659C803.002 473.876 803.002 455.814 807.714 450.316C812.426 444.821 828.134 438.537 839.913 432.256C851.695 425.972 858.762 418.12 863.474 418.12C868.186 418.12 866.614 425.186 872.898 418.12C879.182 411.05 879.965 417.334 886.249 418.12L892.533 418.902C892.533 418.902 890.961 425.186 892.533 429.113C894.101 433.039 896.459 433.825 901.954 432.256C907.452 430.685 914.522 416.183 916.876 414.797C919.234 413.408 922.374 429.113 923.946 434.611C925.514 440.109 936.511 454.245 940.437 462.098C944.363 469.95 915.304 506.076 909.024 507.647C902.74 509.216 883.891 506.076 880.751 507.647C877.61 509.216 870.642 493.511 870.2 491.939C869.758 490.371 865.828 492.725 865.828 492.725C865.828 492.725 856.407 485.659 850.123 486.441C843.839 487.227 832.061 493.511 828.134 494.297C824.208 495.083 813.998 494.297 813.998 494.297L808.5 499.009L800.647 497.437Z" fill="#F44A45"/>
<path d="M882.848 529.899C882.848 529.899 884.419 523.615 884.942 520.474C885.465 517.334 891.226 516.285 891.226 516.285C891.226 516.285 892.795 522.569 891.226 525.709C889.654 528.853 882.848 529.899 882.848 529.899Z" fill="#F44A45"/>
<path d="M943.578 539.846C943.578 539.846 944.623 531.471 949.335 529.899C954.048 528.327 970.802 516.808 974.991 516.285C979.18 515.763 974.991 525.71 974.991 525.71C974.991 525.71 958.76 537.229 954.574 539.846C950.384 542.464 942.992 542.6 943.578 539.846Z" fill="#167C51"/>
<path d="M984.938 516.266C984.938 516.266 989.127 508.431 989.65 504.245C990.173 500.056 993.84 496.916 993.84 496.916C993.84 496.916 995.408 505.796 995.934 506.589C996.457 507.386 998.025 508.958 998.025 512.098C998.025 515.238 985.984 520.999 984.938 520.473C983.892 519.95 983.384 519.396 984.938 516.266Z" fill="#167C51"/>
<path d="M877.61 374.403C877.61 374.403 881.013 383.305 882.322 383.827C883.631 384.35 895.673 386.968 899.076 389.585C902.48 392.203 900.648 395.869 899.076 397.441C897.504 399.009 900.385 401.627 902.739 401.367C905.097 401.104 907.714 402.413 908.5 403.985C909.286 405.553 913.735 407.388 915.044 406.339C916.353 405.294 917.925 401.104 919.756 400.581C921.588 400.059 927.609 399.009 928.131 400.581C928.658 402.15 932.321 405.385 933.893 406.648C935.461 407.911 939.391 407.743 942.268 406.648C945.149 405.553 940.959 404.508 939.391 403.462C937.819 402.413 935.461 400.841 934.152 396.655C932.844 392.466 934.679 391.157 931.275 389.326C927.872 387.49 913.213 377.543 909.286 376.498C905.357 375.449 892.006 378.592 888.08 377.284C884.154 375.975 884.154 373.617 883.108 373.094C882.059 372.572 875.778 369.965 877.61 374.403Z" fill="#167C51"/>
<path d="M939.129 388.277C939.129 388.277 943.318 388.231 945.413 389.695C947.504 391.158 949.599 391.68 947.767 392.203C945.936 392.726 940.701 394.561 939.129 392.989C937.557 391.417 936.757 388.116 939.129 388.277Z" fill="#035755"/>
<path d="M849.168 399.818C849.168 399.818 852.441 396.762 855.062 396.762C857.683 396.762 860.957 398.289 860.957 398.289C860.957 398.289 856.153 400.91 853.971 401.566C851.789 402.218 847.599 401.071 849.168 399.818Z" fill="#035755"/>
<path d="M836.505 399.257C836.505 399.257 839.126 396.324 841.526 395.889C843.93 395.45 847.638 396.759 847.638 396.759C847.638 396.759 845.021 398.043 842.074 399.257C839.126 400.471 835.467 400.285 836.505 399.257Z" fill="#035755"/>
<path d="M835.412 401.754C835.412 401.754 838.033 402.161 839.125 401.754C840.216 401.347 839.781 404.403 838.251 404.403C836.721 404.403 834.321 404.252 835.412 401.754Z" fill="#035755"/>
<path d="M825.995 398.217C825.995 398.217 828.412 396.933 830.626 396.473C832.844 396.013 836.135 395.694 835.496 396.473C834.858 397.252 833.851 398.999 832.037 399.276C830.226 399.554 824.051 399.108 825.995 398.217Z" fill="#035755"/>
<path d="M795.296 389.695C795.296 389.695 798.033 387.642 802.258 388.27C806.486 388.902 811.956 389.926 815.436 390.94C818.917 391.958 824.141 395.929 826.376 395.8C828.615 395.67 830.106 396.94 827.373 397.287C824.636 397.635 816.17 397.852 812.075 396.761C807.977 395.67 803.489 393.109 800.261 392.859C797.037 392.614 793.57 390.579 795.296 389.695Z" fill="#0C6C44"/>
<path d="M838.905 388.15C838.905 388.15 835.958 379.951 835.576 376.456C835.193 372.965 839.888 364.667 840.435 363.249C840.979 361.828 851.242 362.046 853.859 361.063C856.48 360.081 852.986 365.54 850.477 365.54C847.965 365.54 843.639 366.084 841.982 366.849C840.323 367.614 841.197 369.905 841.526 369.905C841.853 369.905 846.982 370.014 847.638 370.67C848.295 371.326 845.105 373.291 845.172 373.835C845.239 374.382 848.186 379.621 848.295 381.259C848.403 382.898 847.53 387.48 846.982 387.045C846.438 386.61 843.817 384.971 843.491 383.663C843.161 382.35 842.179 380.168 840.87 379.951C839.561 379.729 840.214 383.663 840.214 385.08C840.214 386.498 839.354 389.434 838.905 388.15Z" fill="#0C6C44"/>
<path d="M853.86 372.527C853.86 372.527 856.372 372.853 857.134 374.057C857.898 375.257 856.137 375.583 854.888 375.474C853.642 375.365 851.895 372.744 853.86 372.527Z" fill="#035755"/>
<path d="M862.594 368.597C862.594 368.597 862.486 365.323 862.594 363.576C862.703 361.829 862.921 359.755 863.794 359.755C864.668 359.755 866.742 363.358 866.415 364.176C866.089 364.993 865.31 367.941 864.496 368.597C863.686 369.253 862.629 370.13 862.594 368.597Z" fill="#0C6C44"/>
<path d="M868.054 373.4C868.054 373.4 870.345 373.421 871.328 374.01C872.31 374.6 872.857 375.186 872.31 375.494C871.766 375.8 869.363 375.621 868.71 375.494C868.054 375.364 866.65 373.298 868.054 373.4Z" fill="#035755"/>
<path d="M805.172 360.946C805.495 360.831 809.649 359.21 812.375 359.21C815.105 359.21 817.726 352.333 820.891 351.894C824.056 351.459 826.435 345.347 828.849 344.364C831.263 343.382 836.905 346.217 836.322 347.091C835.736 347.964 833.554 350.368 832.68 352.003C831.807 353.641 832.463 358.227 833.119 359.754C833.771 361.283 835.954 363.357 835.575 363.796C835.192 364.231 829.708 375.146 828.849 376.893C827.989 378.641 826.133 380.058 823.838 380.167C821.547 380.279 813.926 379.514 811.842 378.532C809.758 377.55 808.228 373.262 807.684 371.858C807.137 370.451 805.828 368.595 805.72 366.743C805.607 364.887 804.428 361.213 805.172 360.946Z" fill="#167C51"/>
<path d="M763.257 345.892C763.257 345.892 770.46 348.404 771.99 349.604C773.52 350.804 777.776 356.481 780.397 359.319C783.015 362.158 787.383 365.214 787.709 366.523C788.035 367.835 794.544 377.659 794.839 378.859C795.134 380.059 796.183 385.301 794.839 385.41C793.495 385.519 786.509 383.663 785.309 382.024C784.106 380.389 778.102 374.93 777.885 372.526C777.667 370.126 775.155 362.684 773.846 360.947C772.538 359.211 769.917 359.319 769.043 358.119C768.169 356.916 765.878 351.46 764.348 351.021C762.822 350.586 762.275 345.541 763.257 345.892Z" fill="#0C6C44"/>
<path d="M793.165 371.545C793.165 371.545 793.165 374.748 794.365 375.495C795.565 376.239 796.221 377.222 796.66 376.895C797.095 376.565 797.421 375.274 797.095 374.011C796.769 372.745 793.067 370.208 793.165 371.545Z" fill="#035755"/>
<path d="M715.551 331.154V338.687C715.551 340.322 720.322 343.736 720.557 344.157C720.789 344.582 722.101 337.375 722.101 336.066C722.101 334.758 715.551 328.863 715.551 331.154Z" fill="#0C6C44"/>
<path d="M543.127 232.005C543.127 232.005 545.337 232.577 546.074 232.823C546.811 233.068 549.758 234.296 549.432 234.626C549.102 234.953 545.748 235.117 545.418 235.117C545.091 235.117 543.046 235.77 542.635 235.117C542.225 234.461 540.671 231.76 540.997 232.005C541.327 232.251 542.127 231.742 543.127 232.005Z" fill="#035755"/>
<path d="M511.036 221.608C511.036 221.608 514.064 223.246 515.046 223.492C516.029 223.738 517.095 225.537 517.587 226.274C518.078 227.011 515.538 226.194 515.046 225.864C514.555 225.537 512.345 225.373 511.608 224.801C510.871 224.229 510.264 221.201 511.036 221.608Z" fill="#035755"/>
<path d="M498.589 211.702C498.589 211.702 499.981 213.011 500.388 213.502C500.799 213.993 499.817 216.779 500.388 217.677C500.964 218.579 499.592 220.709 499.539 220.218C499.49 219.726 497.852 217.842 497.196 216.695C496.543 215.551 496.378 214.895 496.543 213.748C496.704 212.604 497.796 210.941 498.589 211.702Z" fill="#035755"/>
<path d="M496.952 204.578C496.952 204.578 495.889 206.217 496.952 206.87C498.015 207.526 499.819 208.508 499.819 208.508C499.819 208.508 499.98 207.606 499.819 206.543C499.654 205.48 497.422 203.189 496.952 204.578Z" fill="#035755"/>
<path d="M482.625 214.566C482.625 214.566 483.362 215.756 483.853 215.9C484.344 216.04 485.492 215.324 485.899 215.233C486.309 215.138 484.264 214.156 484.264 213.91C484.264 213.665 482.625 214.566 482.625 214.566Z" fill="#035755"/>
<path d="M476.32 216.859C476.32 216.859 476.731 216.33 477.875 215.898C479.022 215.466 480.415 215.551 480.822 215.466C481.233 215.386 480.906 216.203 480.169 216.859C479.433 217.515 478.45 218.414 476.977 218.579C475.503 218.744 475.257 219.396 475.503 218.744C475.749 218.087 475.359 217.554 476.32 216.859Z" fill="#035755"/>
<path d="M456.18 171.448C456.18 171.448 456.727 169.483 457.71 167.845C458.692 166.21 458.254 161.515 458.58 160.75C458.91 159.985 461.857 155.729 461.966 155.399C462.075 155.073 454.763 148.305 454.433 147.322C454.106 146.34 454.65 143.393 455.089 142.301C455.524 141.21 458.254 135.859 458.801 135.642C459.345 135.424 460.983 135.642 460.983 135.642C460.983 135.642 461.64 137.716 462.513 138.263C463.383 138.807 465.461 139.572 466.004 140.119C466.552 140.663 467.096 147.87 467.313 148.522C467.534 149.178 471.355 157.147 471.79 157.368C472.229 157.585 476.702 161.076 476.811 161.515C476.92 161.95 475.829 168.718 475.285 169.048C474.737 169.374 469.717 170.792 469.169 170.901C468.625 171.013 467.534 172.104 466.331 172.322C465.131 172.539 456.18 171.448 456.18 171.448Z" fill="#167C51"/>
<path d="M441.331 161.078C441.331 161.078 442.748 155.948 443.622 154.857C444.496 153.762 447.117 151.797 448.099 151.362C449.081 150.927 454.45 149.832 454.33 150.38C454.211 150.927 453.776 154.527 453.776 155.074C453.776 155.618 455.085 158.239 454.976 159.004C454.867 159.769 452.246 164.243 451.264 164.899C450.281 165.555 443.296 167.19 443.078 166.537C442.861 165.881 442.531 163.699 442.531 163.699C442.531 163.699 441.766 162.825 441.331 162.495C440.896 162.169 441.331 161.078 441.331 161.078Z" fill="#167C51"/>
<path d="M454.33 134.986C454.33 134.986 452.464 136.885 452.138 137.463C451.811 138.042 451.155 140.337 451.481 140.225C451.811 140.116 452.902 139.463 453.667 139.025C454.429 138.59 454.773 136.842 454.983 136.404C455.194 135.969 454.33 134.986 454.33 134.986Z" fill="#035755"/>
<path d="M468.514 125.162C468.514 125.162 466.549 127.236 466.223 128.001C465.893 128.766 464.928 130.292 465.574 130.401C466.223 130.513 468.406 129.092 468.514 128.983C468.623 128.875 468.841 128.769 469.388 127.787C469.932 126.801 468.514 125.162 468.514 125.162Z" fill="#035755"/>
<path d="M603.77 85.9729C603.77 85.9729 604.643 84.3343 605.078 84.008C605.517 83.6817 607.482 82.9168 607.808 82.9168C608.138 82.9168 608.682 85.6466 607.808 85.9729C606.934 86.2992 604.426 87.7202 604.426 87.7202C604.426 87.7202 603.468 86.5132 603.77 85.9729Z" fill="#41294A"/>
<path d="M610.208 69.9259C610.208 69.9259 611.408 65.0138 612.608 63.5928C613.811 62.1753 621.453 51.8036 622.215 51.586C622.98 51.3685 625.818 49.9475 627.239 49.4037C628.657 48.8563 627.239 54.8597 627.239 54.8597C627.239 54.8597 627.674 54.9719 628.657 54.7509C629.639 54.5333 631.604 54.207 631.604 54.8597V58.2455C631.604 58.2455 622.871 64.5752 622.762 65.2313C622.653 65.8874 622.323 71.6733 622.323 71.6733C622.762 73.1995 624.401 76.6942 624.401 77.2415C624.401 77.7854 624.292 79.9678 624.292 79.9678C624.292 79.9678 619.815 78.7678 618.832 78.3327C617.85 77.8941 614.903 73.4206 614.355 73.1995C613.811 72.982 611.955 71.8908 611.408 71.4557C610.864 71.0171 610.208 69.9259 610.208 69.9259Z" fill="#0C6C44"/>
<path d="M631.606 48.5295C631.606 48.5295 630.406 49.7295 629.968 50.6031C629.533 51.4768 631.606 52.4592 632.589 53.1153C633.571 53.768 635.427 53.6592 636.192 53.1153C636.957 52.568 640.231 49.3681 640.231 49.3681C640.122 48.6383 637.283 47.4383 636.301 47.4383C635.319 47.4383 631.606 48.5295 631.606 48.5295Z" fill="#0C6C44"/>
<path d="M646.138 44.4902C646.138 44.4902 640.65 45.4726 640.243 46.1288C639.836 46.7814 644.106 48.5287 645.12 48.5287C646.138 48.5287 647.562 48.8585 648.78 48.5287C650.001 48.2024 652.032 45.5814 652.032 45.5814C652.032 45.5814 648.955 43.9113 646.138 44.4902Z" fill="#0C6C44"/>
<path d="M619.758 407.458C619.758 407.458 617.467 413.027 616.811 413.518C616.155 414.009 610.26 419.574 608.787 420.556C607.313 421.542 605.675 422.686 605.183 423.833C604.692 424.981 602.566 428.254 602.892 428.911C603.219 429.563 604.692 431.367 604.692 432.184C604.692 433.002 602.566 436.44 602.075 438.244C601.583 440.044 600.601 447.412 601.092 448.394C601.583 449.377 603.219 454.78 605.022 455.436C606.822 456.092 615.173 443.647 616.155 441.352C617.137 439.061 616.32 438.079 617.629 437.096C618.941 436.114 620.415 423.669 620.906 422.195C621.397 420.721 623.032 419.904 623.197 419.248C623.362 418.592 621.888 407.95 621.558 407.458C621.232 406.967 621.397 406.15 619.758 407.458Z" fill="#167C51"/>
<path d="M602.24 323.949C602.24 323.949 602.732 324.44 604.696 325.587C606.661 326.731 609.117 324.605 611.247 324.766C613.373 324.931 622.219 322.31 623.854 322.31C625.492 322.31 626.149 322.829 625.492 325.928C624.836 329.026 621.563 342.453 620.254 344.91C618.942 347.366 604.1 361.446 600.96 364.558C597.819 367.67 590.777 376.347 590.616 377.165C590.451 377.986 591.107 390.758 591.76 392.393C592.416 394.031 593.725 397.799 593.89 399.926C594.055 402.055 593.234 416.957 592.581 418.922C591.925 420.887 576.697 433.493 576.041 435.297C575.385 437.097 574.402 440.044 575.059 440.7C575.715 441.353 577.68 442.174 577.023 444.63C576.367 447.086 575.283 449.212 574.841 450.198C574.402 451.181 571.129 451.181 569.82 452.816C568.508 454.454 568.838 458.384 567.855 461.166C566.873 463.952 564.087 466.899 562.613 469.355C561.14 471.812 556.719 475.411 555.571 477.868C554.428 480.327 552.624 482.292 551.971 483.274C551.315 484.257 539.2 485.239 536.744 486.222C534.288 487.204 533.14 489.33 531.34 489.495C529.537 489.66 525.281 489.495 525.281 489.495C525.281 489.495 522.169 485.074 521.842 483.436C521.513 481.801 519.713 479.18 520.204 476.559C520.695 473.938 513.653 456.584 512.671 454.454C511.688 452.324 511.362 439.062 511.197 436.114C511.036 433.167 505.092 428.42 505.688 426.455C506.285 424.49 506.45 417.283 506.776 415.645C507.106 414.01 509.888 407.859 510.706 405.94C511.527 404.02 511.688 401.073 511.688 399.434C511.688 397.799 510.215 395.996 510.215 394.196C510.215 392.393 510.38 389.445 510.38 388.954C510.38 388.463 500.39 373.235 499.408 371.926C498.426 370.618 498.261 369.305 498.426 367.179C498.59 365.049 498.969 362.263 498.369 361.446C497.769 360.628 497.826 353.095 498.369 351.622C498.917 350.148 495.478 346.218 495.478 346.218L487.619 345.236C487.619 345.236 483.689 340.159 482.872 339.997C482.051 339.832 479.103 339.341 478.286 339.832C477.468 340.324 474.191 341.306 473.209 341.306H467.149C467.149 341.306 465.349 344.089 463.711 344.418C462.076 344.745 460.111 345.071 460.111 345.071L457.49 343.436C457.49 343.436 453.069 342.615 451.43 342.945C449.795 343.271 447.665 344.58 447.009 344.58C446.357 344.58 444.062 344.58 443.571 344.418C443.08 344.253 427.852 330.008 426.543 328.043C425.231 326.078 420.319 319.201 420.157 318.38C419.992 317.563 419.336 310.36 419.336 310.36L417.045 308.391C417.045 308.391 417.536 304.3 417.863 302.988C418.189 301.679 421.301 296.602 421.792 295.784C422.284 294.967 420.975 293.328 421.14 292.511C421.301 291.69 422.94 289.234 422.94 289.234C422.94 289.234 421.301 283.83 421.466 282.195C421.631 280.557 421.14 280.227 422.122 277.936C423.105 275.645 422.449 268.112 422.94 267.129C423.431 266.147 434.729 256.649 436.367 256.322C438.003 255.996 439.315 253.54 439.315 253.54C439.315 253.54 439.15 249.445 439.476 247.48C439.806 245.516 447.174 236.274 448.483 235.407C449.795 234.544 452.251 231.105 452.904 231.105H468.461C469.935 231.105 472.882 227.993 474.026 227.993C475.173 227.993 501.208 228.323 501.864 227.993C502.52 227.667 503.011 238.147 503.994 238.309C504.976 238.474 509.071 240.765 509.397 241.421C509.723 242.077 510.481 242.895 510.674 243.06C510.871 243.221 517.218 244.368 517.646 244.859C518.074 245.351 522.169 251.08 522.169 251.08C522.169 251.08 528.555 251.08 529.046 250.754C529.537 250.428 531.993 245.186 532.484 244.533C532.975 243.877 534.449 243.877 536.088 243.877C537.726 243.877 541.982 245.677 542.638 245.677C543.291 245.677 543.621 250.263 543.947 250.754C544.273 251.245 546.238 248.463 546.73 248.463C547.221 248.463 556.719 250.754 557.866 251.245C559.013 251.737 569.55 262.287 571.455 263.34C573.364 264.389 578.497 278.753 579.153 279.901C579.806 281.048 579.971 284.487 579.971 284.487C579.971 284.487 582.753 286.451 583.244 288.09C583.736 289.725 584.992 293.055 585.648 294.367C586.304 295.676 587.339 299.388 588.978 300.697C590.616 302.005 591.269 307.082 591.925 308.065C592.581 309.047 592.742 312.816 593.398 312.977C594.055 313.142 596.672 314.289 597.655 315.107C598.637 315.924 600.276 318.054 601.258 318.872C602.24 319.693 602.24 323.949 602.24 323.949Z" fill="#167C51"/>
<path d="M279.553 567.929C279.553 567.929 275.623 565.965 273.219 564.873C270.819 563.782 268.198 561.817 268.198 561.817C268.198 561.817 266.89 559.414 266.016 559.196C265.142 558.979 261.213 561.596 261.213 561.596L264.051 567.929C264.051 567.929 269.29 569.677 270.384 570.112C271.476 570.55 279.553 567.929 279.553 567.929Z" fill="#0C6C44"/>
<path d="M267.327 553.302L265.58 548.063C265.58 548.063 271.474 542.169 272.131 539.983C272.787 537.8 273.004 531.25 273.004 531.25L270.383 527.976C270.383 527.976 277.152 517.934 277.59 516.187C278.025 514.44 277.59 510.292 277.59 510.292C277.59 510.292 278.025 509.201 279.555 508.763C281.081 508.327 283.264 503.307 284.358 501.994C285.45 500.686 296.148 496.538 296.583 495.665C297.021 494.791 297.456 491.735 297.456 491.735C297.456 491.735 294.4 484.746 295.491 484.093C296.583 483.437 301.604 484.093 301.604 484.093C301.604 484.093 312.301 473.174 316.887 467.718C321.473 462.258 321.035 453.09 322.347 449.813C323.656 446.54 341.339 438.245 342.869 435.624C344.395 433.003 348.546 416.193 348.546 416.193C348.546 416.193 350.29 403.313 350.946 401.348C351.602 399.383 358.588 396.544 359.023 394.358C359.462 392.176 360.118 377.983 360.118 377.983C360.118 377.983 348.546 374.927 348.108 373.401C347.672 371.871 347.672 369.906 346.581 368.815C345.487 367.724 333.262 366.194 332.389 365.977C331.515 365.759 326.056 358.777 326.056 358.777C326.056 358.777 316.263 359.658 314.719 358.777C313.175 357.9 312.849 355.935 312.849 355.935C312.849 355.935 312.958 349.602 312.849 348.075C312.74 346.546 304.007 339.121 301.604 337.595C299.204 336.065 288.941 332.136 287.193 330.609C285.45 329.079 283.702 322.967 283.046 322.094C282.393 321.22 263.18 319.038 262.524 318.599C261.868 318.164 255.756 315.108 255.756 315.108C255.756 315.108 252.7 318.599 251.608 317.946C250.517 317.29 249.643 312.922 248.77 312.922C247.896 312.922 242.437 316.199 242.437 316.199C242.437 316.199 237.854 317.29 236.763 318.381C235.668 319.473 233.486 324.494 232.395 324.932C231.304 325.367 228.465 326.023 228.465 326.023C228.465 326.023 227.156 329.736 227.591 330.609C228.03 331.483 230.212 335.63 230.212 335.63C230.212 335.63 229.774 344.363 229.121 345.019C228.465 345.672 219.514 357.693 219.297 358.777C219.076 359.865 219.297 363.577 219.297 363.577C219.297 363.577 222.788 366.633 221.914 368.815C221.041 370.998 217.767 374.275 217.767 375.584C217.767 376.892 222.353 383.443 223.444 384.099C224.535 384.752 224.753 393.485 225.409 394.358C226.065 395.232 235.451 408.334 236.542 409.207C237.633 410.081 251.391 421.649 251.826 424.052C252.264 426.452 254.447 436.933 253.356 443.701C252.264 450.469 250.952 459.202 250.079 461.823C249.205 464.441 249.861 487.623 249.426 489.57C248.987 491.514 248.552 494.573 247.896 495.226C247.24 495.882 248.114 512.04 248.552 514.657C248.987 517.278 249.861 524.92 248.552 527.32C247.24 529.723 246.366 534.088 246.587 535.4C246.805 536.709 248.987 542.821 249.205 543.695C249.426 544.569 249.643 548.281 249.643 548.281L253.573 551.337L254.447 556.358C254.447 556.358 258.812 557.449 259.903 557.667C260.994 557.888 261.215 555.484 261.215 555.484C261.215 555.484 263.18 556.575 265.58 555.923C267.983 555.267 267.327 553.302 267.327 553.302Z" fill="#167C51"/>
<path d="M213.181 273.515C213.181 273.515 223.823 273.024 224.97 273.515C226.118 274.006 236.598 280.718 237.58 281.21C238.563 281.701 243.966 284.157 243.966 284.157C243.966 284.157 242.493 285.304 241.345 285.631C240.198 285.96 232.177 285.631 232.177 285.631C232.177 285.631 230.703 281.701 229.882 281.21C229.065 280.718 224.153 278.101 223.005 277.771C221.858 277.445 214.82 279.536 214.82 279.536C214.82 279.536 211.872 277.61 211.381 276.954C210.89 276.297 213.181 273.515 213.181 273.515Z" fill="#0C6C44"/>
<path d="M230.701 289.726C230.701 289.726 234.304 290.382 235.613 290.708C236.922 291.035 238.395 292.999 238.395 292.999C238.395 292.999 235.122 292.673 234.55 292.999C233.974 293.329 230.701 292.999 230.701 292.999C230.701 292.999 229.623 289.526 230.701 289.726Z" fill="#0C6C44"/>
<path d="M243.965 289.718C243.965 289.718 245.603 290.528 246.747 289.718C247.894 288.907 249.533 287.269 250.515 287.269C251.498 287.269 255.427 286.942 256.245 287.269C257.063 287.598 259.522 288.563 258.866 289.718C258.21 290.872 255.427 294.146 254.28 294.146C253.133 294.146 250.185 294.802 249.694 294.146C249.203 293.493 247.894 293.146 247.894 293.146C247.894 293.146 245.603 292.511 244.947 292.346C244.291 292.181 242.049 289.388 243.965 289.718Z" fill="#0C6C44"/>
<path d="M298.983 175.268C298.983 175.268 310.607 164.953 311.59 165.77C312.572 166.591 311.59 171.504 311.59 171.504C311.59 171.504 313.095 172.647 314.719 172.812C316.34 172.977 317.158 177.889 317.488 178.542C317.814 179.198 317.488 184.928 316.34 184.928C315.193 184.928 312.737 183.128 312.737 183.128L305.204 181.98L302.748 180.998C302.748 180.998 298 180.18 298.165 179.524C298.327 178.872 298.983 175.268 298.983 175.268Z" fill="#F44A45"/>
<path d="M232.338 104.859C232.338 104.859 235.451 98.6379 236.759 97.8169C238.068 96.9994 242.654 96.5082 242.654 96.5082C242.654 96.5082 245.275 101.912 245.931 102.076C246.584 102.238 250.513 104.859 250.513 104.859L249.37 105.841H242.654C242.654 105.841 238.398 109.606 237.742 109.771C237.086 109.936 231.696 106.097 232.338 104.859Z" fill="#F44A45"/>
<path d="M240.034 110.916C240.034 110.916 239.217 113.372 240.034 113.537C240.852 113.698 243.799 112.225 244.129 110.916L244.455 109.607C244.455 109.607 240.326 109.762 240.034 110.916Z" fill="#F44A45"/>
<path d="M255.756 106.659L254.283 109.775C254.283 109.775 253.791 110.098 255.756 109.607C257.721 109.115 259.195 106.659 259.195 106.659C259.195 106.659 257.556 105.351 255.756 106.659Z" fill="#F44A45"/>
<path d="M258.212 103.141C258.212 103.141 266.728 104.857 267.871 104.857C269.019 104.857 271.31 109.278 272.622 109.608C273.931 109.934 278.682 110.109 280.317 111.576C281.955 113.046 285.559 118.12 286.376 117.958C287.194 117.793 286.376 115.337 286.376 115.337L283.92 107.98C283.92 107.98 289.98 113.888 290.632 113.548C291.288 113.208 292.271 103.141 292.271 103.141C292.271 103.141 287.685 96.9975 287.524 96.5063C287.359 96.0151 288.015 95.0327 289.159 94.8678C290.306 94.7064 294.727 99.2922 296.365 99.1273C298 98.9624 304.881 91.4293 304.881 91.4293C304.881 91.4293 288.015 81.1137 289.323 80.6225C290.632 80.1313 291.123 79.9699 291.123 79.3138C291.123 78.6577 292.271 75.3841 292.271 75.3841C292.271 75.3841 284.576 66.3773 283.429 66.3773H278.19C278.19 66.3773 278.026 66.2124 275.734 64.5773C273.44 62.9388 259.194 62.1212 259.194 62.1212C259.194 62.1212 256.247 57.5354 255.756 57.2091C255.265 56.8793 249.37 57.2091 249.37 57.2091C249.37 57.2091 245.767 65.2299 245.276 64.5773C244.784 63.9212 245.276 60.809 245.276 60.809L246.914 55.5705L241.402 56.553C241.402 56.553 234.634 63.7563 234.795 64.5773C234.96 65.3948 235.451 73.2543 235.451 73.2543C235.451 73.2543 240.328 75.7104 242.065 76.0402C243.802 76.3665 252.535 76.3665 254.226 76.3665C255.921 76.3665 260.668 75.7104 260.668 75.7104L263.124 74.2367L264.433 77.6752C264.433 77.6752 266.563 82.0962 267.219 82.2611C267.871 82.426 273.44 84.2259 273.44 84.2259C273.44 84.2259 272.948 90.4468 272.948 90.938C272.948 91.4293 268.036 95.8537 267.219 96.5063C266.398 97.1624 261.159 100.436 260.503 100.436C259.851 100.436 256.995 102.899 258.212 103.141Z" fill="#F44A45"/>
<path d="M267.707 84.3886C267.707 84.3886 263.778 86.6797 263.778 87.5008C263.778 88.3183 262.96 92.248 263.778 92.0831C264.595 91.9217 267.216 88.813 267.707 88.2376C268.199 87.6622 267.707 84.3886 267.707 84.3886Z" fill="#F44A45"/>
<path d="M261.157 78.0036C261.157 78.0036 259.027 78.0036 258.209 79.151C257.392 80.2948 256.708 81.4421 256.708 81.4421C256.708 81.4421 259.027 81.7684 260.009 81.4421C260.992 81.1158 261.974 79.7966 261.974 79.7966C261.974 79.7966 261.988 77.9229 261.157 78.0036Z" fill="#F44A45"/>
<path d="M140.041 60.9746C140.041 60.9746 141.571 62.3921 141.679 62.7219C141.788 63.0483 141.679 65.9955 141.679 65.9955C141.679 65.9955 151.83 66.6517 152.269 65.9955C152.704 65.3429 153.686 61.9571 154.451 61.6307C155.216 61.3009 158.489 58.2449 158.489 58.2449C158.489 58.2449 159.146 62.2483 158.489 62.2658C157.833 62.2834 157.833 63.9219 157.833 63.9219L158.781 69.2727C158.781 69.2727 170.605 69.8165 170.387 70.1428C170.17 70.4726 167.549 71.3463 167.549 71.3463C167.549 71.3463 159.581 72.4375 159.363 72.8726C159.146 73.3111 158.924 75.3848 158.924 75.3848C158.924 75.3848 166.675 79.097 167.879 79.7496C169.079 80.4057 173.117 80.9531 173.773 80.8408C174.426 80.732 177.812 78.5496 177.812 78.5496C177.812 78.5496 186.545 78.9882 187.527 78.9882C188.51 78.9882 191.783 79.8408 192.548 79.7952C193.313 79.7496 196.369 79.7952 196.369 79.7952C196.369 79.7952 198.116 75.3848 198.66 75.1672C199.208 74.9462 200.625 73.7462 200.625 73.7462C200.625 73.7462 200.734 72.3287 200.625 71.6726C200.516 71.0165 193.096 62.8307 192.548 61.8483C192.001 60.8659 191.131 57.2624 191.131 57.2624H187.962C187.962 57.2624 186.654 59.5571 186.106 59.6659C185.562 59.7747 184.471 58.1361 184.471 58.1361L180.541 59.5571C180.541 59.5571 171.587 59.1185 171.043 58.6835C170.496 58.2449 167.879 56.28 167.879 56.28L165.914 57.0449L164.602 55.5713C164.602 55.5713 165.475 54.8625 165.693 54.2064C165.914 53.5503 165.584 52.024 165.584 52.024C165.584 52.024 158.598 52.2415 158.272 52.024C157.942 51.8064 156.307 50.824 155.868 50.7117C155.433 50.603 146.044 50.7117 146.044 50.7117C146.044 50.7117 143.206 55.4063 143.097 56.1712C142.988 56.9361 140.041 60.9746 140.041 60.9746Z" fill="#F44A45"/>
<path d="M155.297 39.5777C155.297 39.5777 155.543 38.4865 156.087 38.0479C156.634 37.6129 165.15 33.1358 165.694 32.9182C166.241 32.7007 174.1 32.9182 174.1 32.9182C174.1 32.9182 172.462 35.8796 171.806 36.1989C171.153 36.5217 166.459 38.7041 166.459 38.7041C166.459 38.7041 164.904 41.7601 164.697 41.8689C164.494 41.9777 163.073 40.2338 163.073 40.2338C163.073 40.2338 155.118 40.1461 155.297 39.5777Z" fill="#F44A45"/>
<path d="M169.079 43.6186C169.079 43.6186 174.209 38.8152 174.756 38.5977C175.3 38.3801 180.324 41.773 180.868 41.8783C181.415 41.9801 181.307 43.9449 181.307 44.601C181.307 45.2572 178.359 47.8746 178.359 48.3132C178.359 48.7483 176.83 49.2957 176.83 49.2957C176.83 49.2957 175.966 47.7659 175.198 47.5483C174.43 47.3308 169.405 46.8922 169.079 46.7834C168.753 46.6747 168.156 44.4747 169.079 43.6186Z" fill="#F44A45"/>
<path d="M192.767 54.4242C192.767 54.4242 193.858 53.4418 194.623 53.333C195.388 53.2242 196.479 53.333 196.479 53.333C196.479 53.333 197.244 55.8417 196.479 56.1715C195.714 56.4978 194.076 57.0452 194.076 57.0452C194.076 57.0452 192.984 55.1891 192.767 54.4242Z" fill="#F44A45"/>
<path d="M202.485 59.7731C202.485 59.7731 203.359 59.3381 204.341 59.117C205.323 58.8995 207.836 59.117 207.836 59.117C207.836 59.117 208.271 58.0258 207.836 57.482C207.397 56.9346 206.632 56.3908 206.632 56.3908V55.1627C206.632 55.1627 212.527 54.6434 212.748 54.2049C212.965 53.7698 213.948 53.3452 214.274 53.2856C214.6 53.2224 217.221 53.2856 217.221 53.2856C217.221 53.2856 215.804 56.0609 215.365 56.0609C214.93 56.0609 213.509 57.0434 213.509 57.0434C213.509 57.0434 214.274 57.8083 214.713 58.1346C215.148 58.4644 215.695 59.117 215.804 59.7731C215.913 60.4293 215.148 63.3765 215.148 63.3765C215.148 63.3765 211.983 66.9765 211.436 66.9765C210.892 66.9765 209.036 67.7413 208.597 66.9765C208.162 66.2151 207.506 64.1414 207.506 64.1414C207.506 64.1414 204.232 63.3765 203.685 63.1555C203.141 62.938 202.485 59.7731 202.485 59.7731Z" fill="#F44A45"/>
<path d="M194.793 46.4227C194.793 46.4227 194.266 45.4999 193.53 45.0894C192.793 44.6789 190.582 43.2052 190.337 43.1245C190.091 43.0438 188.046 42.507 187.965 41.8755C187.881 41.2404 187.719 38.2931 188.372 37.8861C189.028 37.4756 190.912 36.8194 190.912 36.8194C190.912 36.8194 191.73 38.8685 192.056 39.0299C192.386 39.1948 193.596 40.2579 194.793 40.2579C195.989 40.2579 197.954 41.079 197.954 41.079C197.954 41.079 196.48 42.3877 196.151 42.3877C195.824 42.3877 195.579 44.3526 195.579 44.3526L196.817 45.2543C196.817 45.2543 195.091 46.8613 194.793 46.4227Z" fill="#FA5652"/>
<path d="M181.315 32.155C181.315 32.155 180.841 30.7621 182.07 30.4358C183.298 30.1094 184.034 28.9621 184.034 28.9621C184.034 28.9621 186.083 26.5867 186.49 26.506C186.901 26.4253 191.487 26.506 191.487 26.506C191.487 26.506 189.438 28.927 189.438 29.313C189.438 29.6989 189.768 31.6638 189.768 31.6638C189.768 31.6638 188.701 33.7094 188.294 33.7936C187.883 33.8743 183.136 34.3655 182.971 34.2848C182.806 34.2006 181.315 32.155 181.315 32.155Z" fill="#F44A45"/>
<path d="M180.105 28.6348C180.105 28.6348 177.403 29.2067 177.403 29.7821C177.403 30.354 175.439 32.0733 175.765 32.154C176.095 32.2382 177.916 32.154 177.916 32.154C177.916 32.154 179.614 31.0908 180.105 30.7645C180.596 30.4347 181.579 28.2348 180.105 28.6348Z" fill="#FA5652"/>
<path d="M198.854 45.6282C198.854 45.6282 200.573 45.0107 201.229 45.0107H203.601C203.601 45.0107 203.275 46.8107 201.966 47.2212C200.654 47.6282 198.854 47.6282 198.854 47.6282C198.854 47.6282 197.401 46.0808 198.854 45.6282Z" fill="#F44A45"/>
<path d="M220.795 56.5527C220.795 56.5527 223.332 55.4053 224.399 55.5703C225.462 55.7352 227.753 55.1632 227.753 55.1632C227.753 55.1632 229.392 53.6861 231.192 53.6861H234.792C234.792 53.6861 233.402 56.472 232.911 57.0439C232.42 57.6158 230.048 58.3526 230.048 58.3526H226.525C226.525 58.3526 224.971 60.728 224.48 60.8929C223.988 61.0543 222.595 62.2017 222.188 62.2017H219.322C219.322 62.2017 219.539 57.0509 220.795 56.5527Z" fill="#FA5652"/>
<path d="M222.596 53.2574C222.596 53.2574 224.396 52.1312 225.954 52.1312H229.884C229.884 52.1312 228.571 54.2609 227.508 54.4258C226.445 54.5872 222.27 54.7521 222.024 54.8328C221.779 54.917 222.596 53.2574 222.596 53.2574Z" fill="#FA5652"/>
<path d="M220.794 47.22C220.794 47.22 222.187 45.1744 222.513 45.0095C222.84 44.8446 224.268 44.4587 225.931 44.3639C227.59 44.2727 229.881 44.3639 229.881 44.3639C229.881 44.3639 229.636 48.0375 228.653 48.2831C227.671 48.5287 224.068 49.5112 222.759 49.841C221.45 50.1673 220.794 47.22 220.794 47.22Z" fill="#F44A45"/>
<path d="M207.205 43.9399C207.205 43.9399 208.98 44.3539 209.85 45.01C210.724 45.6627 212.608 46.3995 212.854 46.3188C213.099 46.2381 215.39 46.4346 215.882 46.5012C216.373 46.5644 217.685 42.4452 217.685 42.4452C217.685 42.4452 219.074 40.5891 219.32 40.2593C219.566 39.933 218.829 38.5856 218.829 38.5856H213.755C213.755 38.5856 212.689 38.133 212.362 38.2137C212.036 38.2944 209.85 40.5049 209.85 40.5049L207.205 43.9399Z" fill="#F44A45"/>
<path d="M202.485 40.3426L204.421 38.2058C204.421 38.2058 205.488 38.3567 206.386 38.2058C207.288 38.0514 207.207 39.9321 207.207 39.9321C207.207 39.9321 205.569 41.8338 205.323 41.6619C205.077 41.4899 203.277 41.6619 203.277 41.6619C203.277 41.6619 201.572 41.3496 202.485 40.3426Z" fill="#F44A45"/>
<path d="M199.346 32.1909C199.346 32.1909 199.96 33.5453 200.675 33.7909C201.391 34.0365 202.216 34.6926 202.216 34.6926L203.602 35.1838C203.602 35.1838 203.275 32.5558 203.03 32.1909C202.784 31.826 199.002 31.5699 199.346 32.1909Z" fill="#F44A45"/>
<path d="M213.289 24.3496C213.289 24.3496 210.672 22.8759 210.016 22.6022C209.363 22.3286 207.205 22.6022 207.205 22.6022L206.416 24.3496L203.848 26.4688C203.848 26.4688 202.002 28.2231 202.216 28.2793C202.43 28.3354 205.819 28.6056 207.209 28.7705C208.598 28.9354 212.854 28.4968 212.854 28.4968L214.328 30.381C214.328 30.381 215.967 31.009 216.458 31.009C216.949 31.009 218.805 30.7354 218.805 30.7354C218.805 30.7354 218.258 27.8442 217.931 27.5144C217.605 27.1881 215.202 26.1495 215.202 26.1495C215.202 26.1495 213.837 24.6548 213.289 24.3496Z" fill="#F44A45"/>
<path d="M227.262 32.1553C227.262 32.1553 223.989 31.6641 223.55 31.0079C223.115 30.3553 222.406 29.5904 222.406 29.5904L220.329 27.3519C220.329 27.3519 224.533 26.0431 225.571 25.8782C226.606 25.7133 228.571 27.5694 228.736 27.787C228.901 28.008 229.227 29.3167 229.227 29.3167L229.883 30.5167L231.192 31.8149C231.192 31.8149 228.041 32.2921 227.262 32.1553Z" fill="#F44A45"/>
<path d="M229.336 32.4279C229.336 32.4279 231.192 32.263 231.901 32.4279C232.61 32.5928 233.266 33.5015 233.266 33.5015L233.54 34.5577C233.54 34.5577 230.81 34.7191 230.484 34.5577C230.154 34.3928 229.28 34.1752 228.845 33.9015C228.41 33.6279 229.336 32.4279 229.336 32.4279Z" fill="#FA5652"/>
<path d="M223.114 36.63C223.114 36.63 228.409 36.5212 229.226 36.63C230.047 36.7387 231.521 37.4475 231.521 37.4475L233.538 38.2019C233.538 38.2019 231.247 39.3036 230.809 39.4124C230.373 39.5211 227.644 39.3597 227.426 39.4124C227.209 39.4685 225.339 38.7036 225.339 38.7036C225.339 38.7036 223.879 38.7597 223.114 38.651C222.349 38.5387 221.64 37.7212 221.64 37.7212C221.64 37.7212 222.297 36.3563 223.114 36.63Z" fill="#FA5652"/>
<path d="M177.594 48.9656C177.594 48.9656 182.506 46.8604 183.706 47.0919C184.91 47.327 190.804 47.0919 190.804 47.0919L195.443 46.32L191.485 41.8745L188.51 39.9342L182.724 41.8745L178.808 40.7167L177.594 45.0078V48.9656Z" fill="#F44A45"/>
<path d="M223.115 38.6501C223.115 38.6501 227.069 40.6711 227.058 40.6711C227.044 40.6711 229.774 42.5061 230.756 42.3517C231.739 42.1974 232.395 45.0078 232.395 45.0078L234.791 48.9656L236.325 49.8638C236.325 49.8638 241.672 48.3095 242.872 48.9656C244.075 49.6217 247.023 51.0533 247.458 50.6638C247.896 50.2743 253.026 49.3445 255.208 49.8638C257.391 50.3866 261.977 50.7305 261.977 50.7305L265.671 48.9656C265.671 48.9656 262.194 45.6359 261.542 45.0078C260.885 44.3798 253.026 43.6184 253.026 43.6184C253.026 43.6184 243.093 43.7271 242.763 43.5096C242.437 43.2886 240.033 39.85 239.707 39.9343C239.381 40.015 234.791 38.6501 234.791 38.6501H232.591H223.115Z" fill="#F44A45"/>
<path d="M260.667 55.5702C260.667 55.5702 261.906 58.1911 263.415 58.6824C264.924 59.1736 269.836 59.6648 269.836 59.6648H273.93C273.93 59.6648 271.471 55.7351 269.836 55.5702C268.201 55.4053 260.667 55.5702 260.667 55.5702Z" fill="#F44A45"/>
<path d="M271.31 40.9976C271.31 40.9976 269.51 39.3836 268.689 39.4537C267.872 39.5239 266.563 38.6503 266.563 38.6503L263.416 40.9976C263.416 40.9976 260.475 39.3836 259.342 39.4537C258.212 39.5239 253.462 39.4537 253.462 39.4537L249.532 39.9344L243.637 39.8257L241.181 38.2046C241.181 38.2046 244.785 34.9767 245.276 34.6293C245.767 34.2855 246.911 32.3908 247.402 32.3557C247.893 32.3206 250.188 31.8995 250.679 32.3557C251.17 32.8118 252.805 33.4995 252.805 33.4995L253.626 32.3557L252.479 30.3908L250.349 29.0224L251.497 28.5874L250.349 26.7453L247.402 28.5874H243.637L235.778 27.7347L232.83 20.5279L229.883 19.2192C229.883 19.2192 228.901 16.107 229.883 16.107C230.866 16.107 233.539 12.9983 233.539 12.9983C233.539 12.9983 236.595 8.57735 237.251 8.57735C237.908 8.57735 242.981 10.051 242.981 10.051C242.981 10.051 253.788 20.6928 253.953 21.184C254.118 21.6753 255.261 25.9664 255.918 25.8681C256.574 25.7699 260.668 26.4681 260.668 26.4681C260.668 26.4681 259.819 23.1243 259.342 22.4822C258.865 21.8402 256.711 19.0543 256.711 19.0543L258.374 18.2367C258.374 18.2367 260.012 18.0718 261.977 19.2192L263.942 20.3665L263.416 16.107L259.342 14.7982L254.77 14.307L250.377 12.8334C250.377 12.8334 247.893 11.1948 246.749 10.051C245.602 8.90365 245.437 6.93879 245.437 6.93879L250.377 4.80902L256.711 3.17398L259.342 3.9915L263.416 3.17398C263.416 3.17398 267.703 1.70033 269.837 1.20911C271.966 0.717898 274.749 2.02664 279.005 1.20911C283.264 0.388084 284.573 0.160019 286.212 1.09333C287.85 2.02664 289.65 2.02664 289.65 2.02664L293.253 0.486328C293.253 0.486328 296.362 0.588081 300.783 0.486328C305.204 0.388084 307.169 0.486328 307.169 0.486328L311.099 3.17398L316.176 4.64762C316.176 4.64762 319.944 4.80902 320.435 5.30024C320.926 5.79145 317.488 8.41244 317.488 8.41244L307.99 9.39487C307.99 9.39487 306.843 15.2895 306.025 15.2895C305.204 15.2895 301.604 16.5982 301.604 16.5982C301.604 16.5982 295.053 19.2192 293.745 19.5455C292.432 19.8753 282.608 20.7209 282.608 20.7209C282.608 20.7209 281.791 26.2611 281.299 26.5874C280.808 26.9172 278.843 29.0224 278.843 29.0224L279.496 30.5171L270.984 36.5836C270.984 36.5836 273.275 37.9099 272.293 39.4537L271.31 40.9976Z" fill="#F44A45"/>
<path d="M286.702 30.1887C286.702 30.1887 288.341 27.8976 289.323 27.5678C290.306 27.2415 295.218 26.259 295.218 26.259C295.218 26.259 302.095 23.8029 303.404 23.4766C304.716 23.1468 308.316 20.7188 308.316 20.7188C308.316 20.7188 305.042 20.5293 304.877 19.382C304.716 18.2347 305.698 16.9259 305.698 16.9259C305.698 16.9259 307.172 13.9786 308.316 13.6488C309.463 13.3225 314.719 11.684 314.719 11.684L317.158 9.55771C317.158 9.55771 328.294 6.2806 330.094 5.46307C331.898 4.64555 344.504 5.95429 348.269 5.46307C352.038 4.97186 354.329 4.48063 354.329 4.48063C354.329 4.48063 356.294 3.1719 358.915 2.51577C361.536 1.85966 371.195 1.20704 375.29 1.69825C379.381 2.18946 382.328 0.442146 382.328 0.442146C382.328 0.442146 405.089 -0.15784 407.054 0.442146C409.019 1.04213 416.06 2.18946 416.552 2.18946C417.043 2.18946 420.481 5.62798 419.664 5.46307C418.846 5.29816 415.078 6.4455 415.078 6.4455C415.078 6.4455 398.377 7.26303 397.559 7.75424C396.738 8.24546 396.577 9.884 397.068 9.884C397.559 9.884 417.534 8.90158 418.025 9.06648C418.517 9.22789 415.899 13.1576 416.717 13.1576C417.534 13.1576 421.464 11.1927 421.955 11.1927C422.446 11.1927 440.242 11.684 441.333 11.684C442.425 11.684 440.295 14.4699 440.295 14.4699C440.295 14.4699 434.565 16.2698 432.927 16.9259C431.288 17.582 431.127 20.6907 430.306 20.6907C429.488 20.6907 425.067 22.6556 425.067 22.6556C425.067 22.6556 423.92 27.2415 423.267 28.7151C422.611 30.1887 420.481 31.9887 420.481 31.9887C420.481 31.9887 421.794 34.7746 422.285 35.5921C422.776 36.4096 425.394 39.0166 425.394 41.0727V43.1253C425.394 43.1253 419.99 41.4727 419.499 41.0727C419.008 40.6692 419.008 43.1253 419.008 43.1253L420.811 44.5989C420.811 44.5989 421.302 55.4056 420.811 56.3881C420.32 57.3705 419.008 60.3178 419.008 60.3178L410.822 57.0442C410.822 57.0442 410.166 60.3178 410.822 60.3178C411.475 60.3178 414.752 62.9388 414.752 62.9388L415.408 66.8685C415.408 66.8685 410.983 65.2299 409.675 64.4124C408.366 63.5914 408.201 65.065 408.201 65.065L409.183 66.0475L414.096 68.6685C414.096 68.6685 415.569 72.2719 415.734 73.5806C415.899 74.8928 415.408 75.8753 415.408 75.8753H410.983L408.692 73.7455L405.254 73.4157L402.142 74.2367L399.033 74.7279L398.542 76.8577L403.454 77.6752C403.454 77.6752 408.692 77.0191 410.492 77.6752C412.296 78.3314 408.036 81.605 407.545 82.2611C407.054 82.9137 401.489 86.8434 400.833 86.8434C400.177 86.8434 398.703 86.5171 393.138 86.8434C387.57 87.1732 384.293 88.1557 384.293 88.1557L382.002 91.4293C382.002 91.4293 378.728 94.3766 378.237 94.8678C377.746 95.359 373.977 96.0151 373.977 96.0151H368.248C368.248 96.0151 367.43 99.2887 366.609 99.7799C365.792 100.271 359.897 107.148 359.897 107.148C359.897 107.148 356.62 115.173 355.476 117.137C354.329 119.102 353.511 121.885 352.529 122.706C351.546 123.523 349.09 125.979 349.09 125.979H344.669L335.006 118.937L331.568 107.804C331.568 107.804 330.259 107.639 330.094 106.496C329.933 105.348 326.982 95.5239 326.982 95.5239L327.147 86.7662L331.077 83.7347L332.88 82.7523L333.042 77.8401L331.898 77.0191L329.277 78.984H326.656L327.803 74.2367L330.094 72.2719L334.354 71.942L330.75 69.1597L326 68.0123C326 68.0123 325.017 55.5705 324.2 54.5881C323.382 53.6057 320.48 50.7286 320.48 50.7286L316.831 44.6901L311.754 42.634L306.842 41.0727L303.242 40.9955L299.639 41.0727H294.727L291.123 38.6482L288.502 37.7219L290.797 36.4096L293.744 34.4448L296.853 33.6273L295.871 32.4799H290.632L288.994 31.3361L286.702 30.1887Z" fill="#167C51"/>
<path d="M409.675 96.3431H413.77V98.4729H416.226L421.138 96.3431L429.98 95.3607L432.601 96.915L434.727 100.764L430.962 108.132L425.885 110.097L420.647 112.062L418.026 109.771L412.296 108.624L409.675 103.055V102.238L408.528 99.7816L405.746 98.7992L407.219 96.8343L409.675 96.3431Z" fill="#167C51"/>
<path d="M101.181 162.005L104.293 164.135L107.566 167.244L108.714 170.191V171.994L104.945 169.538L101.837 166.998L101.181 163.644V162.005Z" fill="#FA5652"/>
<path d="M89.3907 131.713V135.477V138.59L85.9521 135.151V130.404C85.9521 130.404 88.0819 130.074 89.3907 131.713Z" fill="#DA5C5D"/>
<path d="M93.9744 138.59L96.5954 142.685V146.285L93.9744 143.994L91.5183 141.538L93.9744 138.59Z" fill="#FF5476"/>
<path d="M33.5525 134.483L36.8261 131.22L39.9383 128.764L41.247 130.374L39.1208 133.185L37.4015 135.641H34.37L33.5525 134.483Z" fill="#DA5C5D"/>
<path d="M862.488 253.806V245.518L864.145 241.873L867.13 244.525V249.497V253.806H862.488Z" fill="#F44A45"/>
<path d="M867.13 238.889L870.775 233.917H877.073L879.81 230.57L882.378 226.293C882.378 226.293 883.041 229.938 885.031 224.303L887.017 218.668V214.69H892.322L895.967 216.679V230.57L893.978 236.57L890.003 238.889L879.81 243.531C879.81 243.531 881.382 247.176 878.07 245.187L874.754 243.198L870.112 241.871H867.13V238.889Z" fill="#F44A45"/>
<path d="M886.024 210.051V205.742L889.007 201.433V196.462H894.312L897.957 198.448L901.603 200.437L897.957 206.405L892.656 210.051H889.67H886.024Z" fill="#F44A45"/>
<path d="M887.683 192.481L886.027 179.885V177.895L881.55 171.93V159.001H884.617L886.027 166.955L890.999 177.895L893.816 179.551V183.863V190.825V192.481H887.683Z" fill="#F44A45"/>
<path d="M801.386 296.678L805.807 292.92H810.004V296.678L805.695 299.772H804.786L801.386 296.678Z" fill="#0C6C44"/>
<path d="M835.782 283.418L837.627 277.67L839.617 275.021L841.827 273.916L844.48 278.667L840.129 283.418V285.628L835.782 286.512V283.418Z" fill="#0C6C44"/>
<path d="M837.627 297.34V305.294L835.782 310.157L838.954 313.915L842.933 316.789L844.476 311.263V303.751V297.34L840.129 296.347L837.627 297.34Z" fill="#0C6C44"/>
<path d="M846.688 313.03L847.572 316.787V318.114L850.667 320.542L851.772 316.787V313.03L850.225 311.924L846.688 313.03Z" fill="#0C6C44"/>
<path d="M853.417 320.544V322.755L851.771 326.734L849.227 327.835V331.151H850.445L853.417 329.825C853.417 329.825 855.967 327.393 857.073 325.85L858.178 324.302V321.871L853.417 320.544Z" fill="#0C6C44"/>
<path d="M840.131 316.786L845.517 318.555V320.544L842.826 321.428L840.131 320.544L839.398 319.106L840.131 316.786Z" fill="#0C6C44"/>
<path d="M830.555 331.151L832.987 325.846L835.78 323.418H838.288L839.394 324.741L838.288 328.72L835.78 331.151L834.976 335.13H830.555V331.151Z" fill="#0C6C44"/>
<path d="M845.517 338.665L851.77 335.128L853.703 331.153H856.412L857.815 332.476L858.18 334.907V338.665L857.815 343.086L855.254 343.953L851.77 342.216V340.433L846.689 342.216H845.517V338.665Z" fill="#0C6C44"/>
<path d="M975.797 99.8369C974.488 98.5282 948.289 86.9565 947.415 86.7355C946.541 86.518 933.222 83.6794 932.57 84.5531C931.914 85.4268 931.475 89.1389 930.605 88.9214C929.731 88.7039 928.201 88.0477 928.201 88.0477L926.454 86.0829C926.454 86.0829 914.009 86.5179 912.7 86.5179C911.391 86.5179 908.77 89.1389 907.679 89.1389C906.588 89.1389 900.037 81.0619 898.946 80.8409C897.855 80.6234 879.241 79.9708 879.052 79.7497C878.859 79.5322 878.206 76.9112 876.676 76.4761C875.147 76.0375 860.519 70.5815 858.993 70.5815H844.144C842.618 70.5815 840.653 75.1674 840.653 75.1674C840.653 75.1674 826.46 75.6025 825.151 75.82C823.843 76.0375 823.187 76.9112 822.095 76.9112C821.004 76.9112 814.015 66.4342 812.489 65.9957C810.959 65.5606 803.317 64.6869 801.352 64.9045C799.387 65.122 797.643 66.8693 796.114 66.6518C794.584 66.4343 790.001 67.0869 788.689 66.2132C787.381 65.3396 785.633 65.4904 784.324 64.8694C783.016 64.2483 772.535 64.0308 771.444 63.8133C770.353 63.5957 768.606 61.4098 767.293 61.6309C765.985 61.8484 760.525 64.9045 759.651 64.6869C758.781 64.4694 762.711 61.6133 762.711 61.6133C762.711 61.6133 769.479 57.045 769.914 55.2977C770.353 53.5504 767.293 51.368 766.202 49.8417C765.111 48.3119 762.711 47.0032 761.399 46.7821C760.09 46.5646 753.539 45.9085 751.357 45.0383C749.174 44.1646 747.645 41.7612 745.897 41.3261C744.15 40.8875 741.968 41.1086 740.003 41.3261C738.038 41.5437 733.673 46.5646 732.582 46.7821C731.487 47.0032 718.172 48.0944 717.298 48.0944C716.424 48.0944 710.747 52.4592 709 52.6767C707.256 52.8978 703.105 54.424 701.797 55.7363C700.488 57.045 699.176 61.8484 697.428 61.8484C695.685 61.8484 690.443 61.4098 689.351 62.7221C688.26 64.0308 685.639 64.9045 686.952 65.7781C688.26 66.6518 695.685 71.8903 694.59 72.3288C693.499 72.7639 689.727 71.0166 686.59 70.1429C683.457 69.2728 680.836 69.0517 680.183 69.4903C679.527 69.9254 678.436 73.2025 677.124 72.9815C675.815 72.7639 674.941 67.3079 674.068 67.0869C673.194 66.8693 670.576 67.9605 670.576 70.7991C670.576 73.6376 672.541 78.2234 673.85 81.2795C675.159 84.3355 679.092 86.518 681.057 87.1741C683.022 87.8302 684.331 90.2301 683.239 90.6687C682.148 91.1038 678.218 90.4477 677.562 90.8863C676.906 91.3213 674.068 97.437 672.103 98.3071C670.138 99.1808 666.426 99.8369 666.864 99.1808C667.299 98.5282 670.576 93.0687 670.359 89.574C670.138 86.0829 668.103 81.2795 666.829 78.6585C665.556 76.0375 667.229 72.5464 666.829 69.9254C666.426 67.3079 659.44 67.3079 657.258 68.1781C655.075 69.0517 652.672 72.5464 652.237 74.7288C651.798 76.9112 654.858 82.3707 657.04 84.5531C659.222 86.7355 657.914 88.9214 656.822 88.9214C655.728 88.9214 648.959 83.2444 645.03 81.2795C641.1 79.3146 635.862 79.5322 633.897 79.7497C631.932 79.9708 631.058 83.2444 632.588 83.0268C634.114 82.8058 637.826 86.0829 637.826 86.7355C637.826 87.3916 623.855 87.8302 621.89 88.2653C619.925 88.7039 617.522 87.3916 616.866 87.1741C616.213 86.9565 600.273 97.6545 599.399 97.437C598.529 97.2159 598.308 91.5389 598.091 90.6687C597.873 89.7951 594.378 88.4828 593.726 88.2653C593.07 88.0477 592.852 91.7599 592.635 93.2862C592.414 94.816 588.701 98.3071 588.701 98.3071L582.589 103.549C582.589 103.549 584.337 107.04 582.589 107.04C580.842 107.04 576.039 104.205 574.512 104.205C572.982 104.205 574.947 108.868 574.512 109.156C574.074 109.444 571.891 109.156 571.891 109.156C571.891 109.156 564.688 98.5282 565.562 97.6545C566.435 96.7808 572.109 96.9984 573.2 98.5282C574.295 100.054 572.983 100.493 574.295 100.054C575.603 99.6194 580.624 98.9632 580.624 98.9632C580.624 98.9632 583.68 95.6896 583.68 94.816C583.68 93.9423 562.285 80.1883 560.976 79.7497C559.667 79.3146 560.537 80.1883 557.702 80.1883C554.864 80.1883 553.769 79.9707 553.769 79.9707C553.769 79.9707 552.899 80.1883 553.769 78.2234C554.643 76.2586 548.531 73.42 547.874 73.2025C547.222 72.9815 542.636 75.1674 541.98 75.1674C541.327 75.1674 538.05 74.5112 538.05 74.5112L530.163 78.441C530.163 78.441 524.952 79.3146 524.079 80.1883C523.205 81.062 519.058 81.2795 518.401 81.9356C517.745 82.5882 511.198 87.6091 512.724 88.2653C514.254 88.9214 513.816 92.6336 513.816 92.6336C513.816 92.6336 499.844 108.352 497.879 110.1C495.914 111.844 488.272 118.612 488.055 119.703C487.837 120.798 485.872 123.854 486.964 124.506C488.055 125.163 490.02 126.471 490.02 127.345C490.02 128.219 490.893 136.299 491.767 136.517C492.641 136.734 495.914 136.952 495.914 136.952C495.914 136.952 500.5 134.113 501.153 134.113C501.809 134.113 504.981 141.755 505.686 142.846C506.395 143.938 506.612 148.306 506.612 148.306L510.107 149.832C510.107 149.832 516.002 148.523 517.528 147.65C519.058 146.776 518.84 140.008 518.84 138.917C518.84 137.825 525.17 131.931 525.387 130.84C525.608 129.748 522.77 122.542 522.549 121.45C522.331 120.359 523.422 115.338 524.514 114.247C525.608 113.156 527.791 113.156 528.882 111.844C529.973 110.535 534.559 104.205 535.65 103.332C536.741 102.458 540.889 102.019 540.889 102.019C540.889 102.019 542.853 104.858 541.545 105.514C540.236 106.17 534.338 110.317 533.903 111.409C533.468 112.5 529.756 123.198 531.064 124.506C532.373 125.819 536.306 128.875 538.489 129.31C540.671 129.748 547.657 127.345 549.839 127.784C552.025 128.219 554.643 130.183 554.643 130.183C554.643 130.183 546.566 131.275 545.036 131.931C543.51 132.587 540.889 133.24 540.889 133.24C540.889 133.24 540.236 141.32 539.141 141.32C538.05 141.32 533.685 143.064 533.685 143.064C533.685 143.064 529.756 152.453 528.664 152.892C527.573 153.327 504.647 153.983 502.683 153.327L501.591 141.973C501.591 141.973 498.314 143.938 497.662 144.811C497.006 145.685 496.57 154.2 495.697 154.857C494.823 155.509 486.96 160.095 486.634 160.969C486.308 161.842 476.045 175.161 474.301 174.94C472.554 174.723 467.312 173.849 466.876 175.161C466.441 176.47 466.003 178.652 464.694 179.309C463.382 179.961 457.27 181.273 457.27 181.273C457.27 181.273 458.578 183.021 459.452 183.238C460.326 183.456 462.291 183.238 462.291 183.238C462.291 183.238 466.003 189.35 466.876 190.007C467.75 190.663 466.659 198.522 466.441 199.175C466.22 199.831 461.856 199.175 460.547 199.175C459.235 199.175 455.087 198.083 455.087 198.083C455.087 198.083 446.572 200.704 445.481 200.922C444.389 201.14 442.424 203.104 443.298 204.196C444.172 205.29 445.481 207.255 445.481 207.255L444.172 212.059L441.333 218.171C441.333 218.171 445.263 224.283 446.572 225.592C447.88 226.904 463.164 225.156 464.038 225.592C464.912 226.03 470.806 219.918 471.462 219.044C472.115 218.171 471.462 211.838 471.462 211.838C471.462 211.838 479.978 207.255 481.069 205.725C482.16 204.196 482.16 200.704 482.16 200.704C482.16 200.704 492.202 201.14 493.511 200.922C494.823 200.704 500.279 200.048 500.279 200.048C500.279 200.048 506.83 207.69 508.36 209.22C509.886 210.746 519.058 215.767 519.058 215.767C519.058 215.767 521.24 221.444 521.675 220.571C522.114 219.697 522.114 214.676 522.114 214.676C522.114 214.676 522.549 214.894 523.861 214.459C525.17 214.023 512.072 205.508 511.198 203.104C510.324 200.704 508.795 196.775 508.795 196.775C508.795 196.775 524.079 204.196 525.387 206.382C526.699 208.564 526.478 216.423 527.573 216.858C528.664 217.297 531.72 221.009 532.155 222.1C532.594 223.192 534.338 227.56 535.433 227.777C536.524 227.995 538.924 229.304 538.924 229.304C538.924 229.304 543.945 224.065 543.945 223.409C543.945 222.757 540.454 218.606 540.015 217.515C539.58 216.423 547.222 213.15 548.969 212.929C550.713 212.711 554.208 214.241 554.208 214.241C554.208 214.241 548.313 218.827 549.622 220.136C550.934 221.444 553.551 230.395 555.299 230.616C557.046 230.834 574.074 229.304 575.386 230.616C576.695 231.925 577.351 233.563 577.351 233.563C577.351 233.563 576.368 249.608 572.439 249.608C568.509 249.608 560.649 249.938 562.285 250.591C563.923 251.247 568.474 258.24 574.512 261.398C578.224 263.341 587.761 279.811 588.091 282.758C588.417 285.706 601.912 315.761 604.533 317.073C607.15 318.382 634.988 305.937 637.935 304.628C640.883 303.319 651.363 288.253 651.363 286.615C651.363 284.98 644.16 272.534 643.503 271.552C642.847 270.569 631.714 276.79 629.749 276.138C627.785 275.482 617.63 257.142 618.943 256.485C620.251 255.833 625.49 258.78 625.49 258.78C625.49 258.78 630.402 267.948 632.041 268.275C633.679 268.604 643.503 266.31 644.812 266.64C646.124 266.966 646.777 272.534 648.742 272.534C649.872 272.534 656.626 272.864 662.415 273.299L674.482 259.538V247.84V241.872V231.928L685.088 226.574L693.046 219.027L697.463 211.508V192.484V181.747L706.305 177.031L715.551 175.744L718.824 165.726V150.229L725.75 140.232H731.936H739.894V144.622L749.617 153.948H754.922L762.76 159.004H774.367L784.974 165.726L793.163 166.688L801.387 171.898H811.843L820.646 166.688L825.618 159.004L830.597 153.948V150.229L825.618 137.608L816.797 135.545L815.913 127.787L820.646 121.64H825.618L830.597 112.065H840.13L845.516 117.963H852.975L864.498 127.787L872.526 130.408H882.845L885.385 138.26C890.574 137.776 897.09 137.415 897.637 137.825C898.507 138.482 900.037 141.099 902.22 141.32C904.406 141.538 909.862 137.467 911.391 137.646C912.918 137.825 909.205 134.113 909.205 134.113C909.205 134.113 912.918 128.875 914.447 128.875C915.974 128.875 918.16 130.84 919.686 131.496C921.216 132.148 928.858 125.601 928.858 125.601C928.858 125.601 930.166 127.127 930.166 127.784C930.166 128.436 921.868 141.32 920.124 142.411C918.377 143.502 915.756 146.123 915.756 146.123C915.756 146.123 914.009 156.165 914.882 157.913C915.756 159.66 923.398 178.87 924.489 177.126C925.58 175.379 931.696 164.681 932.131 163.151C932.57 161.625 930.822 159.66 932.131 157.695C933.44 155.73 936.499 153.765 936.499 152.453C936.499 151.144 934.752 146.776 934.535 145.032C934.314 143.285 931.914 141.973 931.914 141.973C931.914 141.973 932.57 137.39 934.752 136.952C936.935 136.517 937.373 134.769 941.303 134.552C945.233 134.334 947.197 134.113 947.197 134.113C947.197 134.113 950.471 135.643 951.345 135.643C952.218 135.643 956.801 126.471 958.113 126.692C959.422 126.91 962.699 127.566 963.569 127.127C964.443 126.692 967.281 125.601 967.281 125.601C967.281 125.601 970.776 124.727 970.776 123.415C970.776 122.106 967.499 115.556 966.407 115.121C965.316 114.682 963.79 113.156 963.79 113.156C963.79 113.156 965.534 111.191 966.407 110.752C967.281 110.317 967.72 107.04 967.72 107.04C967.72 107.04 969.246 105.514 970.776 107.04C972.302 108.57 983.656 116.429 986.712 116.868L989.768 117.303V111.844C989.768 110.752 991.516 107.696 991.516 107.696C991.516 107.696 977.105 101.146 975.797 99.8369Z" fill="#167C51"/>
<path d="M872.526 130.408L864.498 127.784L852.976 117.963H845.516L840.13 112.061H830.597L825.618 121.64H820.647L815.913 127.784L816.798 135.545L825.618 137.608L830.597 150.229V153.948L825.618 159L820.647 166.688L811.843 171.895H801.384L793.163 166.688L784.974 165.727L774.367 159H762.76L754.922 153.948H749.617L739.894 144.622V140.229H731.937H725.751L718.825 150.229V165.727L715.551 175.74L706.302 177.032L697.464 181.747V192.48V211.508L693.043 219.027L685.089 226.574L674.482 231.928V241.872V247.84V259.535L662.416 273.296C666.7 273.619 670.454 273.998 671.012 274.341C672.321 275.152 682.475 284.976 682.475 284.976L679.854 286.941C679.854 286.941 683.457 291.201 685.096 291.527C686.731 291.857 692.955 289.236 692.955 289.236C692.955 289.236 694.92 303.646 695.246 304.955C695.573 306.263 704.744 334.757 707.692 334.428C710.639 334.101 713.586 328.533 715.225 324.603C716.86 320.674 715.877 311.832 717.516 309.54C719.155 307.246 724.067 307.246 724.719 305.281C725.375 303.316 728.323 296.439 728.323 296.439C728.323 296.439 736.512 295.457 736.838 294.148C737.165 292.839 738.477 288.909 738.477 288.909L747.645 284.976C747.645 284.976 749.936 292.509 751.575 292.839C753.213 293.165 759.764 299.386 759.764 299.386C759.764 299.386 758.125 308.558 759.108 308.884C760.09 309.211 768.932 308.228 768.932 308.228C768.932 308.228 771.662 319.582 769.806 321.438C769.806 321.438 771.444 334.866 772.644 337.705C773.844 340.543 779.521 345.782 780.395 348.073C781.269 350.367 780.395 354.841 782.142 356.806C783.886 358.771 789.563 362.813 790.984 363.465C792.402 364.121 791.746 359.318 791.967 358.009C792.184 356.697 790.328 357.244 790.328 353.859C790.328 350.476 790.219 349.929 789.672 348.403C789.128 346.873 780.385 338.357 779.132 337.375C777.883 336.392 776.136 334.21 775.809 333.01C775.483 331.81 775.592 326.024 775.592 324.824C775.592 323.621 778.964 319.365 779.132 319.365C779.304 319.365 785.525 326.789 786.833 327.772C788.146 328.754 791.093 336.066 792.511 336.505C793.932 336.94 802.991 326.568 804.082 324.494C805.173 322.421 806.156 313.144 804.082 311.067C802.009 308.993 796.879 306.155 796.331 303.755C795.788 301.351 794.04 297.204 795.132 295.565C796.223 293.93 800.261 290.874 801.135 290.653C802.009 290.436 805.394 292.839 806.486 292.727C807.577 292.618 810.086 291.744 811.398 291.527C812.706 291.309 824.278 285.632 826.678 282.794C829.082 279.955 838.906 264.892 838.58 262.489C838.58 262.489 835.681 258.124 836.366 256.812C837.05 255.503 838.587 252.23 838.587 252.23L829.517 239.458C829.517 239.458 837.646 232.251 836.366 230.942C835.085 229.634 819.966 228.978 820.647 227.339C821.331 225.7 827.882 216.859 828.864 216.859C829.846 216.859 831.481 223.736 831.481 223.736C831.481 223.736 839.671 221.771 840.979 222.753C842.292 223.736 842.292 228.978 843.271 230.942C844.257 232.907 848.186 242.405 849.821 242.076C851.46 241.749 852.769 237.163 856.372 236.837C859.975 236.511 856.372 229.634 856.372 226.683C856.372 223.736 851.46 222.753 852.116 219.153C852.769 215.55 855.716 208.999 860.302 208.347C864.888 207.69 870.782 202.778 873.729 198.849C876.677 194.919 880.28 181.165 878.642 175.923C877.003 170.684 876.677 163.151 876.677 163.151L869.691 161.404C869.691 161.404 864.67 162.06 864.67 161.404C864.67 160.751 861.393 157.039 861.393 157.039C861.393 157.039 877.498 139.79 879.052 139.134C879.635 138.889 882.273 138.552 885.385 138.261L882.845 130.408H872.526Z" fill="#F44A45"/>
<path d="M915.284 149.147L923.277 151.649L925.782 156.653L932.129 157.691V163.151L925.782 179.119L915.284 164.133L914.884 157.912L915.284 149.147Z" fill="#F44A45"/>
<path d="M805.177 360.946L808.668 362.848H813.086L816.956 363.529L820.65 360.946L824.58 355.774L828.334 351.908L828.854 349.368L832.092 347.048L834.103 345.206C834.103 345.206 830.713 343.287 829.552 343.95C828.387 344.613 826.457 345.873 826.457 345.873L819.64 352.396L817.064 353.669L812.865 358.648L809.44 359.202C809.44 359.202 805.412 360.473 805.177 360.946Z" fill="#F44A45"/>
<path d="M185.368 237.796H174.761L160.176 241.196L155.299 237.796L146.917 235.515L136.31 237.796L115.707 236.396C116.237 239.115 116.749 242.578 118.044 243.55C120.008 245.024 120.829 252.557 121.156 253.539C121.482 254.522 122.138 256.813 123.777 257.469C125.412 258.125 127.542 264.184 128.033 265.819C128.524 267.458 133.271 271.223 134.419 271.553C135.566 271.879 136.057 268.932 136.057 268.932C136.057 268.932 132.127 263.693 131.798 262.381C131.471 261.072 129.998 256.978 129.833 256.486C129.671 255.995 126.233 244.697 126.885 244.697C127.542 244.697 128.359 245.024 128.359 245.024C128.359 245.024 132.945 255.83 133.601 257.304C134.254 258.778 142.117 267.623 143.099 268.605C144.081 269.588 146.208 282.851 146.699 283.342C147.19 283.833 156.853 292.51 157.836 293.331C158.818 294.149 165.039 297.752 166.512 298.569C167.986 299.387 171.263 299.552 171.754 299.552C172.246 299.552 182.561 299.717 182.888 300.369C183.214 301.026 188.617 306.594 188.947 307.411C189.273 308.229 197.789 308.229 198.936 308.559C200.08 308.885 202.045 313.306 202.375 314.615C202.701 315.927 212.525 326.734 213.673 327.881C214.817 329.025 220.55 329.19 221.367 329.025C222.185 328.863 224.15 327.881 224.806 327.225C225.462 326.569 225.462 324.278 225.462 324.278C225.462 324.278 223.823 322.478 223.006 322.478H219.076C219.076 322.478 213.181 318.544 212.69 317.401C212.199 316.253 213.834 300.861 213.508 300.208C213.181 299.552 201.554 297.587 201.062 296.605C200.571 295.622 201.062 292.51 201.062 292.51C201.062 292.51 204.666 284.324 204.666 283.342C204.666 282.359 200.845 279.573 200.845 279.573C200.845 279.573 187.308 287.433 186.491 287.924C185.67 288.415 173.554 287.107 172.898 286.124C172.246 285.142 173.39 262.546 173.719 260.581C174.046 258.616 179.94 252.392 182.561 251.739C185.179 251.083 198.936 251.409 200.08 250.918C201.227 250.427 205.483 248.301 205.483 248.301L197.301 241.196L185.368 237.796Z" fill="#167C51"/>
<path d="M306.188 152.835L298.494 143.175C298.494 143.175 296.199 130.73 295.708 130.074C295.217 129.418 291.452 125.488 291.452 125.488C291.452 125.488 288.666 128.6 288.175 129.092L286.21 131.056L279.989 130.4C279.989 130.4 278.351 119.923 277.698 119.432C277.042 118.941 267.217 112.225 266.07 111.734C264.923 111.243 257.393 112.881 256.737 112.881C256.081 112.881 253.463 126.635 253.463 126.635C253.463 126.635 251.66 129.092 251.334 129.583C251.007 130.074 251.169 133.512 252.151 133.839C253.134 134.169 253.134 138.751 253.134 138.751L250.678 144.81C250.678 144.81 246.421 147.758 245.765 148.249C245.113 148.74 243.801 158.073 243.801 158.729C243.801 159.386 242.478 163.642 241.173 162.985C239.871 162.333 239.218 157.912 239.218 157.912L236.106 156.273C236.106 156.273 235.124 150.705 234.632 149.231C234.141 147.758 226.117 143.337 226.117 143.337C226.117 143.337 217.44 137.116 216.784 136.951C216.128 136.786 210.233 134.66 210.233 134.66L209.415 131.874C209.415 131.874 206.959 131.056 206.63 130.565C206.303 130.074 206.138 125.818 207.121 124.671C208.103 123.523 219.405 108.461 220.387 107.969C221.37 107.478 225.626 106.987 225.626 106.987C225.626 106.987 235.941 96.0152 237.25 95.1977C238.562 94.3767 243.639 93.2329 243.639 93.2329C243.639 93.2329 250.351 91.1031 251.007 90.6119C251.66 90.1207 252.807 79.6402 252.151 78.8227C251.499 78.0017 245.113 77.1842 244.457 77.5104C243.801 77.8403 243.639 81.2788 241.836 81.9349C240.036 82.5875 235.124 87.1734 235.124 87.1734C235.124 87.1734 234.467 79.6402 233.976 79.6402C233.485 79.6402 229.39 79.4753 229.39 79.4753C229.39 79.4753 228.082 75.9666 227.59 76.328C227.099 76.6929 225.299 76.3035 225.299 76.3035C225.299 76.3035 225.134 69.8159 224.478 68.016C223.826 66.2125 220.222 64.5774 220.222 64.5774C220.222 64.5774 215.145 71.4545 214.984 71.9457C214.819 72.4369 216.619 74.5632 216.619 74.5632L221.37 76.3666C221.37 76.3666 219.566 79.149 219.405 79.9665C219.24 80.7876 215.966 81.77 215.966 81.77L214.493 78.9841L209.089 75.5456C209.089 75.5456 204.173 78.4929 204.503 79.4753C204.83 80.4577 206.63 81.1139 206.63 81.1139L204.994 82.9173C204.994 82.9173 196.644 83.57 194.679 83.57C192.714 83.57 183.542 81.1139 182.56 81.2788C181.578 81.4402 180.269 84.7173 180.269 84.7173C180.269 84.7173 174.536 85.0436 173.883 84.8822C173.227 84.7173 160.947 83.5699 161.111 83.0787C161.273 82.5875 162.911 80.949 162.911 80.949L162.255 79.4753L149.81 78.0017C149.81 78.0017 148.336 76.3666 146.701 75.3842C145.063 74.4018 134.256 74.4018 134.256 74.4018C134.256 74.4018 132.947 72.5983 131.635 72.272C130.326 71.9457 116.242 72.9281 116.242 72.9281C116.242 72.9281 109.857 77.1841 108.874 77.3491C107.892 77.5104 98.2323 76.528 98.2323 76.528C98.2323 76.528 92.3378 72.4369 90.6992 72.272C89.0606 72.1071 77.2715 70.9633 76.289 70.6334C75.3066 70.3071 71.7067 68.8335 71.7067 68.8335C71.7067 68.8335 68.9208 69.8159 68.4296 69.8159C67.9384 69.8159 65.9735 68.1774 64.6648 67.3598C63.3525 66.5423 47.9634 65.395 46.6512 66.0511C45.3425 66.7037 41.739 68.5072 41.739 68.5072C41.739 68.5072 33.7147 71.2896 33.0621 71.2896C32.406 71.2896 31.0972 75.5456 29.6236 76.0368C28.1499 76.528 22.2553 76.8578 22.0904 77.5104C21.9255 78.1666 21.108 80.6227 21.108 80.6227C21.108 80.6227 25.8552 83.4086 26.1851 84.0612C26.5114 84.7173 25.6939 87.1734 26.8377 87.6646C27.985 88.1558 24.0553 89.1382 23.2378 88.9733C22.4167 88.8119 17.5046 90.6119 17.5046 90.6119C17.5046 90.6119 14.3959 94.0504 14.231 94.7065C14.0661 95.3591 14.231 96.6714 14.231 96.6714C14.231 96.6714 24.7114 96.5065 24.7114 97.4889C24.7114 98.4713 24.2202 101.254 24.2202 101.254C24.2202 101.254 17.5046 103.71 17.1783 104.692C16.852 105.675 10.4627 110.59 10.1364 111.408C9.81005 112.225 9.97146 120.741 10.9539 121.397C11.9398 122.05 13.2486 122.871 13.2486 122.871C13.2486 122.871 13.2486 125.653 13.4135 126.309C13.5749 126.962 24.7114 127.783 24.7114 127.783C24.7114 127.783 25.2026 132.204 24.2202 132.53C23.2378 132.856 15.8695 135.969 13.7398 136.46C11.61 136.951 1.45939 145.467 1.45939 145.467C1.45939 145.467 0.312052 146.449 1.45939 146.614C2.60322 146.775 11.61 141.702 12.1012 141.702C12.5924 141.702 18.9782 141.372 21.2729 141.211C23.5641 141.046 30.4411 135.316 31.4235 134.33C32.406 133.348 34.6971 129.256 34.6971 129.256C34.6971 129.256 38.9567 127.618 40.1005 127.127C41.2478 126.635 42.5566 123.853 42.5566 123.853L49.2722 114.846C49.2722 114.846 52.5458 115.994 52.0546 116.485C51.5634 116.976 44.8512 122.706 45.3425 123.032C45.8337 123.362 43.8688 126.144 44.8512 125.818C45.8337 125.488 52.2195 122.05 53.5282 122.05C54.8405 122.05 56.6404 121.723 56.6404 121.723C56.6404 121.723 58.6053 118.45 59.2614 118.45C59.914 118.45 62.535 121.397 63.1911 121.558C63.8438 121.723 78.0925 121.232 79.5662 121.723C81.0398 122.215 83.9871 125.327 83.9871 125.327C83.9871 125.327 89.2256 125.653 90.5343 125.653C91.8465 125.653 93.8114 128.274 93.8114 128.274C93.8114 128.274 98.5586 140.228 99.706 141.863C100.853 143.502 102.488 159.547 102.98 160.203C103.471 160.859 105.765 161.35 106.748 162.168C107.73 162.985 108.874 167.245 109.53 167.571C110.186 167.901 112.313 171.34 112.313 171.34C112.313 171.34 108.874 174.778 108.222 175.269C107.565 175.761 108.057 191.15 107.239 192.297C106.418 193.444 103.309 196.392 103.309 197.374C103.309 198.356 102.488 210.802 102.98 213.749C103.471 216.696 109.039 231.759 110.678 231.924C112.313 232.089 113.625 231.598 114.769 233.233C115.158 233.791 115.435 234.994 115.709 236.394L136.309 237.794L146.915 235.513L155.298 237.794L160.175 241.194L174.76 237.794H185.37L197.303 241.194L205.486 248.299C205.486 248.299 214.001 248.299 215.145 249.117C216.292 249.934 219.566 261.236 220.387 262.218C221.205 263.2 225.134 266.474 225.461 265.818C225.79 265.165 227.59 261.236 227.59 261.236C227.59 261.236 225.952 250.264 225.952 249.608C225.952 248.952 226.608 244.861 226.282 243.878C225.952 242.896 236.597 234.706 238.071 233.724C239.544 232.742 241.674 230.124 241.674 230.124C241.674 230.124 244.292 220.461 245.113 219.97C245.93 219.479 253.299 209.489 254.281 209.163C255.263 208.837 260.34 206.051 261.323 205.398C262.305 204.742 262.632 201.96 263.288 200.977C263.94 199.995 269.509 195.9 269.509 195.9C269.509 195.9 274.751 196.392 275.568 195.9C276.386 195.409 279.989 195.9 279.989 195.9L289.157 190.167C289.157 190.167 281.789 183.62 280.807 183.781C279.824 183.946 279.663 177.887 280.154 177.069C280.645 176.252 282.119 173.631 282.119 173.631C282.119 173.631 281.954 170.848 282.61 170.519C283.263 170.192 290.631 169.375 290.631 169.375C290.631 169.375 294.564 170.519 295.547 170.519C296.529 170.519 309.627 161.021 309.627 161.021C309.627 161.021 309.301 155.456 309.627 154.965C309.953 154.473 306.188 152.835 306.188 152.835Z" fill="#F44A45"/>
<path d="M474.623 175.258L480.802 177.03L484.034 176.145C484.034 176.145 486.574 176.84 488.055 176.145L489.535 175.447V171.374L487.209 168.703L482.037 166.76C482.037 166.76 476.002 173.71 474.623 175.258Z" fill="#F44A45"/>
</svg>
